<svg xmlns="http://www.w3.org/2000/svg" width="95" height="95" viewBox="0 0 95 95"><g transform="translate(-1 -1)"><rect width="71.691" height="3" transform="translate(12.654 84.346)" fill="#4a4a4a"/><path d="M76.081,28.581H91.4a4.6,4.6,0,0,0,4.6-4.6V17.855A16.875,16.875,0,0,0,79.145,1H17.855A16.875,16.875,0,0,0,1,17.855v6.129a4.6,4.6,0,0,0,4.6,4.6H20.919a4.6,4.6,0,0,0,4.6-4.6v-4.6h3.065v7.661a4.6,4.6,0,0,0,4.6,4.6V34.71H25.516v1.532A57.277,57.277,0,0,1,8.629,77.009L1,84.64V96H96V84.64l-7.629-7.629A57.283,57.283,0,0,1,71.484,36.242V34.71H63.823V31.645a4.6,4.6,0,0,0,4.6-4.6V19.387h3.065v4.6A4.6,4.6,0,0,0,76.081,28.581ZM91.4,25.516H76.081a1.534,1.534,0,0,1-1.532-1.532V22.452H92.935v1.532A1.534,1.534,0,0,1,91.4,25.516Zm-70.484,0H5.6a1.534,1.534,0,0,1-1.532-1.532V22.452H22.452v1.532A1.534,1.534,0,0,1,20.919,25.516ZM86.2,79.177l4.566,4.565H86.806v3.065h6.129v6.129H4.065V86.806h6.129V83.742H6.231L10.8,79.177a60.307,60.307,0,0,0,17.767-41.4H44.7a41.2,41.2,0,0,0-4.079,9.479,8.848,8.848,0,0,1-2.245-2.672L37.6,43.057l-1.43.935c-.31.2-7.588,5.133-7.588,19.348,0,10.37,8,17.337,19.919,17.337S68.419,73.71,68.419,63.34c0-14.213-7.278-19.144-7.588-19.348l-1.43-.935-.775,1.523a8.829,8.829,0,0,1-2.245,2.672A41.229,41.229,0,0,0,52.3,37.774H68.438A60.312,60.312,0,0,0,86.2,79.177ZM48.5,37.428a37.964,37.964,0,0,1,5.387,12.64l.38,2.049,1.842-.971a14.506,14.506,0,0,0,4.2-3.552c1.805,1.9,5.041,6.578,5.041,15.747,0,8.671-6.616,14.273-16.855,14.273s-16.855-5.6-16.855-14.273c0-9.174,3.241-13.855,5.04-15.745a14.531,14.531,0,0,0,4.206,3.552l1.842.971.38-2.049A38.054,38.054,0,0,1,48.5,37.428ZM60.758,34.71H50.379c-.365-.532-.61-.863-.654-.922L48.5,32.165l-1.223,1.624c-.044.058-.29.389-.654.922H36.242V31.647H60.758Zm4.6-7.661a1.534,1.534,0,0,1-1.532,1.532H33.177a1.534,1.534,0,0,1-1.532-1.532V16.323H34.71v6.129a3.068,3.068,0,0,0,3.065,3.065H43.9a3.068,3.068,0,0,0,3.065-3.065V16.323h3.065v6.129A3.068,3.068,0,0,0,53.1,25.516h6.129a3.068,3.068,0,0,0,3.065-3.065V16.323h3.065ZM37.774,19.387H43.9v3.065H37.774Zm15.323,0h6.129v3.065H53.1Zm15.323-3.065a3.068,3.068,0,0,0-3.065-3.065H62.29a3.068,3.068,0,0,0-3.065,3.065H53.1a3.068,3.068,0,0,0-3.065-3.065H46.968A3.068,3.068,0,0,0,43.9,16.323H37.774a3.068,3.068,0,0,0-3.065-3.065H31.645a3.068,3.068,0,0,0-3.065,3.065H25.516a3.068,3.068,0,0,0-3.065,3.065H4.065V17.855a13.806,13.806,0,0,1,13.79-13.79h61.29a13.806,13.806,0,0,1,13.79,13.79v1.532H74.548a3.068,3.068,0,0,0-3.065-3.065Z" fill="#4a4a4a"/><rect width="3" height="3" transform="translate(56.468 56.468)" fill="#4a4a4a"/><rect width="3" height="3" transform="translate(37.532 62.448)" fill="#4a4a4a"/><rect width="3" height="3" transform="translate(48.495 68.428)" fill="#4a4a4a"/></g></svg>