<svg xmlns="http://www.w3.org/2000/svg" width="98.03" height="97" viewBox="0 0 98.03 97"><path d="M97.7,28.642,75.153,6.184A11.627,11.627,0,0,0,59.192,6.15a10.17,10.17,0,0,0-2.358,3.514C53.151,17.273,49.2,22.039,44.121,24.9l-1.224.587c-5.46,2.71-12.888,5.469-26.616,5.469A11.279,11.279,0,0,0,5.857,37.86a11.2,11.2,0,0,0,0,8.52,10.905,10.905,0,0,0,2.454,3.637L26.557,68.09,5,98,35.187,76.643l18.2,18.028a11.007,11.007,0,0,0,3.7,2.464,11.264,11.264,0,0,0,8.635,0,11.183,11.183,0,0,0,6.966-10.313c0-13.609,2.786-20.961,5.516-26.375,2.8-5.542,7.722-9.765,15.533-13.486a11.383,11.383,0,0,0,4.01-2.553A11.126,11.126,0,0,0,97.7,28.642ZM68.1,55.464c-4.619,9.179-6.7,18.827-6.74,31.308L16.281,42.129c12.065,0,21.512-1.872,30.435-6.056l1.325-.587c7.891-3.905,13.92-10.576,19.109-21.419L89.282,36.7C78.775,41.687,72.046,47.648,68.1,55.464Z" transform="translate(-3.97 -1.995)" fill="none" stroke="#4a4a4a" stroke-width="2"/></svg>