<svg xmlns="http://www.w3.org/2000/svg" width="92" height="93.999" viewBox="0 0 92 93.999"><g transform="translate(-21.535 -15.498)"><g transform="translate(24.827 21.076)"><path d="M106.108,55.845a40.034,40.034,0,0,1,13.8,22.143,39.388,39.388,0,0,1-2.355,24.469A39.711,39.711,0,1,1,53.591,58.093a39.8,39.8,0,0,1,46.884-6.059,41.851,41.851,0,0,1,5.632,3.811,1.523,1.523,0,0,0,2.08,0,1.47,1.47,0,0,0,0-2.072,42.771,42.771,0,0,0-66.921,17.57A42.459,42.459,0,0,0,73.923,128.51a43.4,43.4,0,0,0,25.277-3.4,42.962,42.962,0,0,0,18.232-16.163,42.359,42.359,0,0,0-4.4-50.521,42.04,42.04,0,0,0-4.867-4.651,1.523,1.523,0,0,0-2.08,0,1.489,1.489,0,0,0,.02,2.072Z" transform="translate(-38.426 -44.124)"/><g transform="translate(73.03 78.67)"><g transform="translate(0 0)"><path d="M410.538,449.061l6.821,6.821a1.462,1.462,0,0,0,2.066-2.066L412.6,447c-1.325-1.345-3.391.721-2.066,2.066Z" transform="translate(-410.111 -446.558)"/></g></g><g transform="translate(2.628 78.67)"><g transform="translate(0 0)"><path d="M59.159,447l-6.821,6.821a1.462,1.462,0,0,0,2.066,2.066l6.821-6.821c1.325-1.345-.741-3.41-2.066-2.066Z" transform="translate(-51.911 -446.558)"/></g></g><g transform="translate(41.376 10.816)"><path d="M275.812,128.638H255.895a4.161,4.161,0,0,1-4.229-2.689,9.236,9.236,0,0,1-.214-3.021V101.043a1.462,1.462,0,0,0-2.923,0v21.379a28.87,28.87,0,0,0,.039,2.9,7.024,7.024,0,0,0,6.879,6.256c3.1.058,6.217,0,9.315,0h11.069a1.473,1.473,0,0,0-.02-2.943Z" transform="translate(-248.511 -99.625)"/></g></g><g transform="translate(21.535 15.497)"><g transform="translate(78.248 0)"><path d="M420.424,17.992a40.731,40.731,0,0,1,10.621,13.291c.838,1.676,3.371.195,2.533-1.481a42.826,42.826,0,0,0-11.069-13.9,1.508,1.508,0,0,0-2.066,0,1.459,1.459,0,0,0-.02,2.085Z" transform="translate(-419.994 -15.497)"/></g><g transform="translate(0 0.002)"><path d="M32.773,15.916A42.825,42.825,0,0,0,21.7,29.811c-.838,1.676,1.676,3.157,2.533,1.481A40.423,40.423,0,0,1,34.839,18a1.47,1.47,0,0,0,0-2.066,1.489,1.489,0,0,0-2.066-.019Z" transform="translate(-21.535 -15.508)"/></g></g></g></svg>