<?xml version="1.0" standalone="no"?>
<!DOCTYPE svg PUBLIC "-//W3C//DTD SVG 20010904//EN"
 "http://www.w3.org/TR/2001/REC-SVG-20010904/DTD/svg10.dtd">
<svg version="1.0" xmlns="http://www.w3.org/2000/svg"
 width="300.000000pt" height="49.000000pt" viewBox="0 0 300.000000 49.000000"
 preserveAspectRatio="xMidYMid meet">
<metadata>
Created by potrace 1.10, written by Peter Selinger 2001-2011
</metadata>
<g transform="translate(0.000000,49.000000) scale(0.100000,-0.100000)"
fill="#000000" stroke="none">
<path d="M1341 410 c-1 -34 3 -60 9 -60 6 0 10 26 10 60 0 33 -4 60 -9 60 -4
0 -9 -27 -10 -60z"/>
<path d="M1508 440 c-4 -8 -9 -33 -10 -55 -3 -46 -28 -56 -39 -15 -5 22 -7 23
-14 7 -15 -35 38 -64 63 -34 6 7 33 12 69 11 32 0 64 4 71 9 14 11 17 91 2 82
-5 -3 -10 -22 -10 -41 0 -28 -4 -34 -21 -34 -11 0 -18 4 -14 9 8 13 -24 43
-43 39 -8 -2 -17 -8 -19 -14 -2 -7 6 -10 23 -6 20 4 25 1 22 -9 -2 -8 -19 -15
-36 -17 -30 -3 -31 -2 -34 40 -2 25 -6 37 -10 28z"/>
<path d="M1680 400 c0 -29 3 -50 7 -47 3 4 6 25 6 47 0 22 -3 43 -6 47 -4 3
-7 -18 -7 -47z"/>
<path d="M1410 400 c0 -5 5 -10 10 -10 6 0 10 5 10 10 0 6 -4 10 -10 10 -5 0
-10 -4 -10 -10z"/>
<path d="M1410 360 c0 -5 5 -10 10 -10 6 0 10 5 10 10 0 6 -4 10 -10 10 -5 0
-10 -4 -10 -10z"/>
<path d="M1776 225 c8 -31 -6 -33 -25 -3 l-14 22 -19 -24 c-18 -22 -21 -23
-29 -7 -6 9 -20 16 -32 16 -17 -1 -18 -2 -4 -6 23 -6 22 -23 -2 -23 -10 0 -21
7 -25 15 -3 8 -12 15 -21 15 -8 0 -15 -7 -15 -15 0 -8 -4 -15 -10 -15 -5 0
-10 7 -10 15 0 8 -9 15 -20 15 -13 0 -20 -7 -20 -20 0 -11 6 -20 13 -20 8 0 7
-4 -3 -10 -13 -8 -13 -10 1 -10 9 0 19 3 23 8 4 4 53 8 109 8 56 1 105 2 110
3 11 2 8 61 -3 61 -6 0 -8 -11 -4 -25z m-216 -15 c0 -5 -4 -10 -10 -10 -5 0
-10 5 -10 10 0 6 5 10 10 10 6 0 10 -4 10 -10z m60 0 c0 -5 -4 -10 -10 -10 -5
0 -10 5 -10 10 0 6 5 10 10 10 6 0 10 -4 10 -10z"/>
<path d="M1800 214 c0 -21 4 -33 10 -29 6 3 10 19 10 36 0 16 -4 29 -10 29 -5
0 -10 -16 -10 -36z"/>
<path d="M840 209 c0 -16 5 -29 10 -29 6 0 10 7 10 15 0 8 7 15 15 15 26 0 16
25 -10 26 -21 2 -25 -2 -25 -27z"/>
<path d="M902 210 c0 -19 2 -27 5 -17 2 9 2 25 0 35 -3 9 -5 1 -5 -18z"/>
<path d="M982 223 c-8 -8 -9 -13 -2 -13 5 0 10 -8 11 -17 0 -14 2 -15 6 -3 3
8 9 17 13 20 4 3 2 10 -4 16 -9 8 -15 7 -24 -3z"/>
<path d="M1039 238 c-6 -24 -5 -58 2 -58 5 0 9 11 9 25 0 18 5 25 20 25 15 0
20 -7 20 -25 0 -14 5 -25 11 -25 6 0 8 7 5 16 -3 9 -6 22 -6 30 0 9 -11 14
-30 14 -16 0 -30 -1 -31 -2z"/>
<path d="M1118 228 c5 -7 12 -22 15 -33 3 -13 5 -9 6 13 1 23 -3 32 -15 32
-12 0 -14 -3 -6 -12z"/>
<path d="M1162 225 c-7 -9 -8 -15 -2 -15 5 0 10 -7 10 -15 0 -8 5 -15 10 -15
6 0 10 7 10 15 0 8 5 15 11 15 6 0 4 7 -5 15 -18 18 -18 18 -34 0z"/>
<path d="M1227 233 c-11 -10 -8 -53 4 -53 6 0 8 8 4 19 -4 13 0 23 12 30 15 9
15 10 2 11 -9 0 -19 -3 -22 -7z"/>
<path d="M1308 228 c5 -7 12 -22 15 -33 3 -13 5 -9 6 13 1 23 -3 32 -15 32
-12 0 -14 -3 -6 -12z"/>
<path d="M927 224 c-16 -16 -7 -44 14 -44 15 0 20 5 17 22 -3 22 -19 33 -31
22z m23 -24 c0 -5 -4 -10 -10 -10 -5 0 -10 5 -10 10 0 6 5 10 10 10 6 0 10 -4
10 -10z"/>
<path d="M1267 223 c-13 -12 -7 -43 7 -43 19 0 28 14 20 34 -7 17 -16 20 -27
9z"/>
<path d="M1482 193 c2 -27 8 -39 21 -41 9 -2 17 1 17 7 0 6 -7 8 -16 4 -12 -4
-15 -2 -12 8 3 8 11 13 17 12 6 -2 11 2 11 7 0 6 -7 10 -15 10 -21 0 -19 18 3
23 12 3 11 5 -6 6 -21 1 -23 -3 -20 -36z"/>
<path d="M2300 179 c0 -5 10 -9 22 -9 12 0 18 3 14 7 -10 11 -36 12 -36 2z"/>
<path d="M543 173 c-8 -3 -13 -22 -13 -44 0 -24 4 -38 10 -34 6 3 10 20 10 36
0 42 31 35 44 -9 15 -52 30 -43 40 23 l6 40 -13 -35 -14 -34 -10 30 c-10 28
-31 38 -60 27z"/>
<path d="M662 168 c-16 -16 -15 -37 3 -44 8 -4 15 -12 15 -20 0 -8 5 -14 10
-14 6 0 10 15 10 34 0 39 -20 62 -38 44z m15 -30 c-3 -8 -6 -5 -6 6 -1 11 2
17 5 13 3 -3 4 -12 1 -19z"/>
<path d="M1984 145 c6 -28 4 -35 -9 -35 -8 0 -15 -5 -15 -10 0 -6 45 -9 123
-8 l122 3 1 35 c1 26 1 28 -3 8 -5 -32 -33 -38 -33 -8 0 11 -4 20 -10 20 -5 0
-10 -9 -10 -20 0 -27 -28 -25 -33 3 l-4 22 -2 -22 c-1 -16 -7 -23 -21 -23 -11
0 -20 6 -20 14 0 7 -7 19 -16 27 -12 10 -20 10 -35 1 -16 -11 -19 -9 -19 8 0
11 -5 20 -11 20 -7 0 -9 -12 -5 -35z m74 -22 c2 -9 -7 -13 -28 -13 -28 0 -31
2 -20 15 15 18 41 16 48 -2z"/>
<path d="M2450 145 c0 -40 -20 -47 -35 -12 -6 12 -17 22 -25 22 -8 0 -19 -10
-25 -22 -12 -28 -35 -30 -35 -3 0 11 -4 20 -10 20 -5 0 -10 -9 -10 -20 0 -28
-28 -25 -32 3 -4 27 -27 29 -42 4 -9 -15 -7 -22 13 -38 l23 -19 -23 -1 c-13 0
-18 -3 -11 -6 7 -3 27 2 45 9 19 9 58 14 97 12 36 -1 71 3 78 8 14 12 16 78 2
78 -5 0 -10 -16 -10 -35z m-180 -20 c0 -8 -4 -15 -9 -15 -13 0 -22 16 -14 24
11 11 23 6 23 -9z m130 -5 c0 -11 -4 -20 -9 -20 -11 0 -22 26 -14 34 12 12 23
5 23 -14z"/>
<path d="M2493 135 c0 -27 2 -38 4 -22 2 15 2 37 0 50 -2 12 -4 0 -4 -28z"/>
<path d="M758 133 c12 -2 30 -2 40 0 9 3 -1 5 -23 4 -22 0 -30 -2 -17 -4z"/>
<path d="M952 133 c70 -2 187 -2 260 0 73 1 16 3 -127 3 -143 0 -203 -2 -133
-3z"/>
<path d="M1388 133 c12 -2 30 -2 40 0 9 3 -1 5 -23 4 -22 0 -30 -2 -17 -4z"/>
<path d="M1548 133 c50 -2 134 -2 185 0 50 1 9 3 -93 3 -102 0 -143 -2 -92 -3z"/>
<path d="M1873 133 c9 -2 25 -2 35 0 9 3 1 5 -18 5 -19 0 -27 -2 -17 -5z"/>
<path d="M758 113 c12 -2 30 -2 40 0 9 3 -1 5 -23 4 -22 0 -30 -2 -17 -4z"/>
<path d="M1388 113 c12 -2 30 -2 40 0 9 3 -1 5 -23 4 -22 0 -30 -2 -17 -4z"/>
<path d="M1873 113 c9 -2 25 -2 35 0 9 3 1 5 -18 5 -19 0 -27 -2 -17 -5z"/>
<path d="M1711 68 c-1 -30 -15 -37 -25 -13 -7 20 -33 19 -45 -2 -9 -17 -11
-17 -25 2 -13 16 -15 17 -10 3 3 -10 1 -18 -5 -18 -6 0 -11 -4 -11 -8 0 -5 27
-9 61 -10 64 -1 74 7 66 50 -4 21 -4 20 -6 -4z m-31 -12 c0 -11 -19 -15 -25
-6 -3 5 1 10 9 10 9 0 16 -2 16 -4z"/>
<path d="M1743 55 c0 -22 2 -30 4 -17 2 12 2 30 0 40 -3 9 -5 -1 -4 -23z"/>
<path d="M1060 50 c0 -16 5 -30 10 -30 6 0 10 9 10 20 0 13 7 20 20 20 11 0
20 5 20 10 0 6 -13 10 -30 10 -27 0 -30 -3 -30 -30z"/>
<path d="M1556 56 c3 -9 1 -16 -5 -16 -6 0 -11 -5 -11 -11 0 -6 8 -9 18 -7 19
4 23 39 4 46 -7 2 -10 -2 -6 -12z"/>
</g>
</svg>
