<svg xmlns="http://www.w3.org/2000/svg" width="106.036" height="107.016" viewBox="0 0 106.036 107.016"><g transform="translate(-73.675 -69.766)"><path d="M351.127,265.122h19.109V199.6H351.127Z" transform="translate(-191.526 -89.341)" fill="none" stroke="#4a4a4a" stroke-width="2"/><path d="M351.127,249.333h19.109V199.6H351.127Z" transform="translate(-221.934 -73.551)" fill="none" stroke="#4a4a4a" stroke-width="2"/><path d="M351.127,239.413h19.109V199.6H351.127Z" transform="translate(-249.175 -63.631)" fill="none" stroke="#4a4a4a" stroke-width="2"/><path d="M351.127,224.465h19.109V199.6H351.127Z" transform="translate(-276.416 -48.683)" fill="none" stroke="#4a4a4a" stroke-width="2"/><path d="M.057,41.919a4.806,4.806,0,0,1,3.121-5.3l74.3-25.171L72.862,9.056A4.825,4.825,0,0,1,70.8,2.615,4.68,4.68,0,0,1,77.142.523l14.6,7.557A4.825,4.825,0,0,1,93.8,14.518L86.363,29.349a4.679,4.679,0,0,1-8.223.328A4.855,4.855,0,0,1,77.962,25l2.206-4.4L6.016,45.72a4.424,4.424,0,0,1-1.42.24A4.656,4.656,0,0,1,.057,41.919Z" transform="translate(74.711 70.782)" fill="none" stroke="#4a4a4a" stroke-width="2"/></g></svg>