<svg xmlns="http://www.w3.org/2000/svg" width="93" height="95" viewBox="0 0 93 95"><g transform="translate(-24.347 -5.888)"><path d="M76.8,5.892C60.339,5.659,45.36,13.909,38.588,26.907A31.655,31.655,0,0,0,34.91,41.7v2.919c-.269,1.206-1.48,2.374-2.736,3.464-.4.35-1.076.9-1.839,1.518-2.6,2.179-3.767,3.152-4.126,3.58a7.384,7.384,0,0,0-1.615,2.452c-1.032,2.763,1.435,4.086,2.242,4.514a22.242,22.242,0,0,0,2.6,1.167c.762.311,1.48.584,2.242.856l.135.039.269.117c.628,3.619,3,17.24,3.05,17.318a7.48,7.48,0,0,0,2.691,5.215c2.6,2.063,6.1,1.985,8.925,1.907,2.063-.039,3.9-.039,5.785-.039.135,1.518.314,3.775.448,5.721s.314,3.931.4,5.487a3.091,3.091,0,0,0,1.435,2.3,4,4,0,0,0,2.2.662,4.5,4.5,0,0,0,.718-.078l45.656-7.9A4.885,4.885,0,0,0,107.7,88.4V81.2a57.031,57.031,0,0,1,6.279-25.451,31.875,31.875,0,0,0,3.364-14.866h0C116.893,21.615,99.088,6.2,76.8,5.892ZM109.942,54.3A60.5,60.5,0,0,0,103.3,81.274v7.2a.793.793,0,0,1-.718.739l-44.8,7.744c-.09-1.4-.224-3.074-.359-4.709-.538-7.238-.583-7.589-.673-7.9l-.448-1.4H54.195c-2.512,0-4.844-.039-7.535.039-2.242.039-4.53.117-5.83-.9a4.215,4.215,0,0,1-1.256-2.88c-.045-.156-3.184-18.291-3.184-18.291l-.09-.545-.4-.428L35.4,59.48a4.962,4.962,0,0,0-1.48-.662l-.448-.156c-.718-.272-1.39-.506-2.108-.817a21.158,21.158,0,0,1-2.153-.973,3.084,3.084,0,0,1-.314-.195,4.99,4.99,0,0,1,.762-1.09c.359-.35,2.512-2.14,3.767-3.23.762-.623,1.435-1.206,1.884-1.557,1.749-1.518,3.633-3.347,4.036-5.721l.045-.156V41.7A28.5,28.5,0,0,1,42.669,28.5C48.723,16.906,62.088,9.512,76.8,9.745c19.913.272,35.834,14.049,36.193,31.328A29.69,29.69,0,0,1,109.942,54.3Z" transform="translate(0 0)" fill="#4a4a4a"/><path d="M134.508,65.241a9.261,9.261,0,0,0-2.08.231V55.3h-14.2a3.03,3.03,0,0,0-2.578,1.272,2.25,2.25,0,0,0,0,2.582,3.215,3.215,0,0,1,.452,2.582,3.865,3.865,0,0,1-3.075,2.7,4.684,4.684,0,0,1-3.618-.694,3.43,3.43,0,0,1-1.583-2.813,3.177,3.177,0,0,1,.543-1.773,2.25,2.25,0,0,0,0-2.582,3.03,3.03,0,0,0-2.578-1.272H91.5V90.1h40.837V79.768a9.871,9.871,0,0,0,3.98.039,8.116,8.116,0,0,0,6.557-5.51,6.613,6.613,0,0,0-1.673-6.319,9.014,9.014,0,0,0-6.693-2.736Zm3.3,5.163a3.264,3.264,0,0,1,.814,3.083,3.85,3.85,0,0,1-3.12,2.62,4.961,4.961,0,0,1-3.03-.385,3.385,3.385,0,0,0-2.985,0,2.461,2.461,0,0,0-1.447,2.158v8.439H96.113v-27.2h7.6a6.159,6.159,0,0,0-.271,1.85,7,7,0,0,0,3.256,5.78,9.9,9.9,0,0,0,7.417,1.426,8.108,8.108,0,0,0,6.467-5.626,6.613,6.613,0,0,0-.09-3.391H128v8.285a2.389,2.389,0,0,0,1.492,2.158,3.517,3.517,0,0,0,2.985,0,4.86,4.86,0,0,1,2.126-.5h0A4.158,4.158,0,0,1,137.809,70.4Z" transform="translate(-37.562 -30.072)" fill="#4a4a4a"/></g></svg>