<svg xmlns="http://www.w3.org/2000/svg" width="62" height="94" viewBox="0 0 62 94"><g transform="translate(-0.034)"><path d="M29.435,22.07v21.45a9.429,9.429,0,0,1,2.038-.7,11.342,11.342,0,0,1,4.756-.013,9.553,9.553,0,0,1,4.03,1.806,7.152,7.152,0,0,1,.834.791,6.106,6.106,0,0,1,1.544-.7,7.124,7.124,0,0,1,3.212-.171h0a7.57,7.57,0,0,1,2.98,1.213,6.678,6.678,0,0,1,2.177,2.465,7.586,7.586,0,0,1,1.9-.87l.124-.026a7.18,7.18,0,0,1,3.66-.04,7.08,7.08,0,0,1,3.181,1.767A7.358,7.358,0,0,1,62.034,54.4V72.6a15.831,15.831,0,0,1-2.255,6.921h0a9.644,9.644,0,0,1-3.413,3.612v9.4A1.609,1.609,0,0,1,54.652,94l-.17-.013H21.359a1.609,1.609,0,0,1-1.714-1.463h-.015V84.389l-6.656-5a1.7,1.7,0,0,1-.355-.369h0L1.392,62.306a5.1,5.1,0,0,1-.849-1.49l-.031-.092A5.375,5.375,0,0,1,.218,59.05V44.311a1.609,1.609,0,0,1,1.714-1.463H7.26a7.224,7.224,0,0,1,4.787,1.674,5.459,5.459,0,0,1,1.915,4.14v6.394l1.73,1.081V22.2a5.717,5.717,0,0,1,4.169-5.484,8.353,8.353,0,0,1,2.749-.448,8.7,8.7,0,0,1,2.749.435A5.557,5.557,0,0,1,29.42,22.07Zm13.1-13a1.9,1.9,0,0,1,2.347.527,1.363,1.363,0,0,1-.618,2L33.852,16.73A1.9,1.9,0,0,1,31.5,16.2a1.363,1.363,0,0,1,.618-2ZM44.244,29.6a1.353,1.353,0,0,1,.633,1.991,1.88,1.88,0,0,1-2.332.541L32.138,27A1.353,1.353,0,0,1,31.5,25.01a1.88,1.88,0,0,1,2.332-.541ZM2.612,32.129A1.9,1.9,0,0,1,.265,31.6a1.363,1.363,0,0,1,.618-2l10.408-5.128A1.9,1.9,0,0,1,13.638,25a1.363,1.363,0,0,1-.618,2ZM.9,11.6A1.353,1.353,0,0,1,.265,9.611,1.88,1.88,0,0,1,2.6,9.07L13,14.2a1.353,1.353,0,0,1,.633,1.991,1.88,1.88,0,0,1-2.332.541ZM20.849,1.463a1.736,1.736,0,0,1,3.428,0V11.72a1.736,1.736,0,0,1-3.428,0ZM58.621,72.6V54.4a4.667,4.667,0,0,0-1.3-3.428,3.433,3.433,0,0,0-1.575-.9,3.341,3.341,0,0,0-1.652.013l-.062.026a4.591,4.591,0,0,0-2.455,1.912,1.766,1.766,0,0,1-1.544.831,1.609,1.609,0,0,1-1.714-1.463c0-1.582-.263-3.771-3.135-3.981a3.276,3.276,0,0,0-1.436.066,2.328,2.328,0,0,0-1.5,1.345,1.706,1.706,0,0,1-1.668,1.121,1.609,1.609,0,0,1-1.714-1.463,2.221,2.221,0,0,0-.957-1.714,5.833,5.833,0,0,0-2.486-1.094,7.618,7.618,0,0,0-3.088.013,5.011,5.011,0,0,0-3.1,2.03,1.789,1.789,0,0,1-1.513.778,1.609,1.609,0,0,1-1.714-1.463V22.109a2.7,2.7,0,0,0-1.915-2.65,4.576,4.576,0,0,0-1.452-.237,4.686,4.686,0,0,0-1.467.25,2.829,2.829,0,0,0-2.007,2.769V59.05h0a1.368,1.368,0,0,1-.324.87,1.921,1.921,0,0,1-2.394.316l-5.065-3.151a1.451,1.451,0,0,1-.8-1.239V48.714a2.738,2.738,0,0,0-.927-2.1,3.481,3.481,0,0,0-2.332-.778H3.708V59.116a2.326,2.326,0,0,0,.154.844l.015.04a2.564,2.564,0,0,0,.371.686,1.038,1.038,0,0,1,.154.2L15.522,77.428,23.135,83.8v7.33H53v-8.7a1.707,1.707,0,0,1,1.3-1.582c.8-.171,1.7-1.239,2.486-2.571h0m0,0a13.123,13.123,0,0,0,1.869-5.6" transform="translate(0)" fill="#4a4a4a"/></g></svg>